# xmcd
#
# Track frame offsets: 
#        150
#        10903
#        22248
#        34796
#        47983
#        60096
#        70875
#        81887
#        95765
#        107774
#
# Disc length: 1619 seconds
#
# Revision: 0
# Processed by: cddbd v1.5.2PL0 Copyright (c) Steve Scherf et al.
# Submitted via: ExactAudioCopyFreeDBPlugin 1.0
#
DISCID=8006510a
DTITLE=George Strait - Strait Country
DYEAR=1981
DGENRE=Country
TTITLE0=Unwound
TTITLE1=Honky Tonk Down Stairs
TTITLE2=Blame It On Mexico
TTITLE3=If You're Thinking You Want A Stranger (There's One Coming Hom
TTITLE3=e)
TTITLE4=I Get Along With You
TTITLE5=Down And Out
TTITLE6=Friday Night Fever
TTITLE7=Every Time You Throw Dirt On Her (You Lose A Little Ground)
TTITLE8=She's Playing Hell Trying To Get Me To Heaven
TTITLE9=Her Goodbye Hit Me In The Heart
EXTD=
EXTT0=
EXTT1=
EXTT2=
EXTT3=
EXTT4=
EXTT5=
EXTT6=
EXTT7=
EXTT8=
EXTT9=
PLAYORDER=
